:SAMPLES-PER-SECOND 30
:FULLY-SPECIFIED
:DEGREES
641
root  -49.7249 34.3614 -11.4672 -167.057 -8.69827 178.237
RightUpLeg  -20.4165 -28.3815 -8.53226
RightLeg  33.4965 -9.75932 -5.558
RightFoot  -9.56347 0.13449 2.22034
RightToes  -7.26521 -0.022383 -0.0674145
Spine  -0.500795 -0.134631 -0.55159
Spine1  -1.2119 0.212125 -0.775787
HEad  -76.7338 -18.7101 17.6826
LeftShoulder1  -1.94126e-019 -3.10601e-018 -2.51263e-017
LeftArm  7.86572 6.07137 -74.1796
LeftForeArm  28.4856 -21.9523 -3.36718
LeftHand  -0.322532 -1.54307 5.56492
RightShoulder  -4.96962e-017 0 -2.36833e-017
RightArm  -16.5811 -4.29512 69.1141
RightForeArm  56.182 14.3321 1.21089
RightHand  -0.345929 -1.95433 -11.4931
LeftUpLeg  -28.8424 32.9638 -4.7712
LeftLeg  16.3656 21.4459 4.70197
LeftFoot  13.2176 -0.616969 5.48296
LeftToes  -26.1748 2.03064e-006 1.83538e-008
642
root  -48.9278 34.2915 -11.4878 -167.636 -5.07845 177.711
RightUpLeg  -15.8729 -34.4958 -10.5617
RightLeg  29.1324 -12.3547 -5.81776
RightFoot  -11.6621 0.257578 3.1467
RightToes  -2.60271 -0.00703363 -0.0244712
Spine  -1.05141 -0.0913281 -0.883514
Spine1  -2.2898 0.194952 -1.3467
HEad  -74.5502 -16.7491 16.6549
LeftShoulder1  -1.94126e-019 -3.10601e-018 -2.51263e-017
LeftArm  4.14767 10.6688 -72.9786
LeftForeArm  29.4371 -19.4223 -3.0877
LeftHand  -0.324096 -1.44692 5.662
RightShoulder  -4.96962e-017 0 -2.36833e-017
RightArm  -23.9713 -8.00978 69.5772
RightForeArm  56.9725 14.2812 1.20633
RightHand  -0.377319 -1.95117 -12.5504
LeftUpLeg  -26.6116 35.5351 -3.5824
LeftLeg  14.0883 22.3795 3.99793
LeftFoot  14.9782 -0.820906 6.4001
LeftToes  -30.6653 2.03064e-006 1.83538e-008
643
root  -47.9374 34.154 -11.4191 -168.175 -0.262741 177.316
RightUpLeg  -12.5148 -38.8946 -12.0046
RightLeg  25.0771 -16.6755 -6.41159
RightFoot  -7.85039 0.15228 2.87452
RightToes  -17.3449 -0.0671573 -0.155139
Spine  -1.41281 0.220326 -1.26694
Spine1  -3.01432 0.741084 -2.05692
HEad  -73.0233 -14.11 15.8657
LeftShoulder1  -1.94126e-019 -3.10601e-018 -2.51263e-017
LeftArm  -0.206705 14.667 -71.6776
LeftForeArm  30.171 -15.6971 -2.58455
LeftHand  -0.336427 -1.17943 6.08877
RightShoulder  -4.96962e-017 0 -2.36833e-017
RightArm  -28.0774 -11.0916 70.4102
RightForeArm  54.1973 14.5018 1.22094
RightHand  -0.324896 -2.60867 -13.2377
LeftUpLeg  -24.2728 38.0585 -1.64408
LeftLeg  12.4065 24.243 3.60397
LeftFoot  15.9837 -1.01525 7.38357
LeftToes  -33.8098 2.03064e-006 1.83538e-008
644
root  -46.7437 33.9405 -11.2409 -168.635 5.63019 177.293
RightUpLeg  -12.5652 -42.6567 -11.5092
RightLeg  22.9983 -14.6312 -5.05725
RightFoot  4.49699 0.0588865 -0.897455
RightToes  -36.5303 -0.191376 -0.294695
Spine  -1.64146 0.629206 -1.64011
Spine1  -3.50042 1.50762 -2.75165
HEad  -72.1498 -10.4423 15.2808
LeftShoulder1  -1.94126e-019 -3.10601e-018 -2.51263e-017
LeftArm  -5.42533 18.6651 -70.2294
LeftForeArm  30.6688 -11.9398 -2.02598
LeftHand  -0.357878 -0.767593 6.86591
RightShoulder  -4.96962e-017 0 -2.36833e-017
RightArm  -31.8317 -12.6833 71.9189
RightForeArm  52.9996 13.4381 1.36812
RightHand  -0.283561 -3.15249 -14.2342
LeftUpLeg  -21.856 39.8079 1.58662
LeftLeg  12.0619 26.9397 3.81671
LeftFoot  15.9592 -1.14009 8.28146
LeftToes  -34.8256 2.03064e-006 1.83538e-008
645
root  -45.3829 33.7659 -10.9246 -169.057 11.8949 179.471
RightUpLeg  -16.0509 -41.3843 -7.06835
RightLeg  26.4579 -9.37904 -3.91773
RightFoot  1.23217 0.00387263 0.141634
RightToes  -33.529 -0.168962 -0.27573
Spine  -1.51584 1.18031 -1.12808
Spine1  -3.28976 2.74091 -1.82293
HEad  -72.3887 -5.7643 14.5177
LeftShoulder1  -1.94126e-019 -3.10601e-018 -2.51263e-017
LeftArm  -13.3263 22.6339 -70.4295
LeftForeArm  31.4785 -9.9939 -1.75124
LeftHand  -0.371421 -0.108592 7.91422
RightShoulder  -4.96962e-017 0 -2.36833e-017
RightArm  -35.466 -12.4643 72.5783
RightForeArm  55.64 10.7352 1.54642
RightHand  -0.245366 -3.64741 -15.6758
LeftUpLeg  -19.3527 39.5546 8.30565
LeftLeg  14.8791 30.3412 5.7086
LeftFoot  13.3972 -0.932408 8.08799
LeftToes  -34.5067 2.03064e-006 1.83538e-008
